<mxfile host="app.diagrams.net" modified="2023-10-23T22:28:50.763Z" agent="Mozilla/5.0 (Windows NT 10.0; Win64; x64) AppleWebKit/537.36 (KHTML, like Gecko) Chrome/118.0.0.0 Safari/537.36" etag="nRJfkTdS2L-OVUUOGmk2" version="22.0.6" type="github">
  <diagram id="C5RBs43oDa-KdzZeNtuy" name="Page-1">
    <mxGraphModel dx="1434" dy="782" grid="1" gridSize="10" guides="1" tooltips="1" connect="1" arrows="1" fold="1" page="1" pageScale="1" pageWidth="1169" pageHeight="827" math="0" shadow="0">
      <root>
        <mxCell id="WIyWlLk6GJQsqaUBKTNV-0" />
        <mxCell id="WIyWlLk6GJQsqaUBKTNV-1" parent="WIyWlLk6GJQsqaUBKTNV-0" />
        <mxCell id="uXJUU_KmSxDn1WXmXQjy-84" value="" style="ellipse;whiteSpace=wrap;html=1;aspect=fixed;" vertex="1" parent="WIyWlLk6GJQsqaUBKTNV-1">
          <mxGeometry x="1065" y="700" width="40" height="40" as="geometry" />
        </mxCell>
        <mxCell id="uXJUU_KmSxDn1WXmXQjy-0" value="Fachfeinkonzept erstellen" style="rounded=1;whiteSpace=wrap;html=1;" vertex="1" parent="WIyWlLk6GJQsqaUBKTNV-1">
          <mxGeometry x="140" y="80" width="120" height="40" as="geometry" />
        </mxCell>
        <mxCell id="uXJUU_KmSxDn1WXmXQjy-85" value="" style="edgeStyle=orthogonalEdgeStyle;rounded=0;orthogonalLoop=1;jettySize=auto;html=1;" edge="1" parent="WIyWlLk6GJQsqaUBKTNV-1" source="uXJUU_KmSxDn1WXmXQjy-2" target="uXJUU_KmSxDn1WXmXQjy-0">
          <mxGeometry relative="1" as="geometry" />
        </mxCell>
        <mxCell id="uXJUU_KmSxDn1WXmXQjy-2" value="" style="strokeWidth=2;html=1;shape=mxgraph.flowchart.start_2;whiteSpace=wrap;fillColor=#0F0F0F;" vertex="1" parent="WIyWlLk6GJQsqaUBKTNV-1">
          <mxGeometry x="30" y="90" width="20" height="20" as="geometry" />
        </mxCell>
        <mxCell id="uXJUU_KmSxDn1WXmXQjy-7" value="Dokumente aufarbeiten" style="rounded=1;whiteSpace=wrap;html=1;" vertex="1" parent="WIyWlLk6GJQsqaUBKTNV-1">
          <mxGeometry x="380" y="140" width="120" height="40" as="geometry" />
        </mxCell>
        <mxCell id="uXJUU_KmSxDn1WXmXQjy-8" value="auf Sharepoint ablegen" style="rounded=1;whiteSpace=wrap;html=1;" vertex="1" parent="WIyWlLk6GJQsqaUBKTNV-1">
          <mxGeometry x="580" y="140" width="120" height="40" as="geometry" />
        </mxCell>
        <mxCell id="uXJUU_KmSxDn1WXmXQjy-9" style="edgeStyle=orthogonalEdgeStyle;rounded=0;orthogonalLoop=1;jettySize=auto;html=1;exitX=1;exitY=0.5;exitDx=0;exitDy=0;entryX=0;entryY=0.5;entryDx=0;entryDy=0;endArrow=open;endFill=0;endSize=15;" edge="1" parent="WIyWlLk6GJQsqaUBKTNV-1" source="uXJUU_KmSxDn1WXmXQjy-41" target="uXJUU_KmSxDn1WXmXQjy-7">
          <mxGeometry relative="1" as="geometry">
            <mxPoint x="100" y="170" as="sourcePoint" />
            <mxPoint x="190" y="170" as="targetPoint" />
          </mxGeometry>
        </mxCell>
        <mxCell id="uXJUU_KmSxDn1WXmXQjy-10" style="edgeStyle=orthogonalEdgeStyle;rounded=0;orthogonalLoop=1;jettySize=auto;html=1;exitX=1;exitY=0.5;exitDx=0;exitDy=0;endArrow=open;endFill=0;endSize=15;" edge="1" parent="WIyWlLk6GJQsqaUBKTNV-1" source="uXJUU_KmSxDn1WXmXQjy-7" target="uXJUU_KmSxDn1WXmXQjy-8">
          <mxGeometry relative="1" as="geometry">
            <mxPoint x="310" y="170" as="sourcePoint" />
            <mxPoint x="390" y="170" as="targetPoint" />
          </mxGeometry>
        </mxCell>
        <mxCell id="uXJUU_KmSxDn1WXmXQjy-12" style="edgeStyle=orthogonalEdgeStyle;rounded=0;orthogonalLoop=1;jettySize=auto;html=1;exitX=1;exitY=0.5;exitDx=0;exitDy=0;endArrow=open;endFill=0;endSize=15;" edge="1" parent="WIyWlLk6GJQsqaUBKTNV-1">
          <mxGeometry relative="1" as="geometry">
            <mxPoint x="700" y="159.5" as="sourcePoint" />
            <mxPoint x="780" y="159.5" as="targetPoint" />
          </mxGeometry>
        </mxCell>
        <mxCell id="uXJUU_KmSxDn1WXmXQjy-14" value="" style="endArrow=none;html=1;rounded=0;strokeWidth=4;" edge="1" parent="WIyWlLk6GJQsqaUBKTNV-1">
          <mxGeometry width="50" height="50" relative="1" as="geometry">
            <mxPoint x="780" y="220" as="sourcePoint" />
            <mxPoint x="780" y="100" as="targetPoint" />
          </mxGeometry>
        </mxCell>
        <mxCell id="uXJUU_KmSxDn1WXmXQjy-15" value="Kunde übergibt Anmerkungen" style="rounded=1;whiteSpace=wrap;html=1;" vertex="1" parent="WIyWlLk6GJQsqaUBKTNV-1">
          <mxGeometry x="860" y="80" width="120" height="40" as="geometry" />
        </mxCell>
        <mxCell id="uXJUU_KmSxDn1WXmXQjy-16" value="Gutachter übergibt Anmerkungen" style="rounded=1;whiteSpace=wrap;html=1;" vertex="1" parent="WIyWlLk6GJQsqaUBKTNV-1">
          <mxGeometry x="860" y="200" width="120" height="40" as="geometry" />
        </mxCell>
        <mxCell id="uXJUU_KmSxDn1WXmXQjy-17" value="IT-Leiter übergibt Anmerkungen" style="rounded=1;whiteSpace=wrap;html=1;" vertex="1" parent="WIyWlLk6GJQsqaUBKTNV-1">
          <mxGeometry x="860" y="140" width="120" height="40" as="geometry" />
        </mxCell>
        <mxCell id="uXJUU_KmSxDn1WXmXQjy-18" style="edgeStyle=orthogonalEdgeStyle;rounded=0;orthogonalLoop=1;jettySize=auto;html=1;exitX=1;exitY=0.5;exitDx=0;exitDy=0;entryX=0;entryY=0.5;entryDx=0;entryDy=0;endArrow=open;endFill=0;endSize=15;" edge="1" parent="WIyWlLk6GJQsqaUBKTNV-1">
          <mxGeometry relative="1" as="geometry">
            <mxPoint x="780" y="219.5" as="sourcePoint" />
            <mxPoint x="860" y="219.5" as="targetPoint" />
          </mxGeometry>
        </mxCell>
        <mxCell id="uXJUU_KmSxDn1WXmXQjy-19" style="edgeStyle=orthogonalEdgeStyle;rounded=0;orthogonalLoop=1;jettySize=auto;html=1;exitX=1;exitY=0.5;exitDx=0;exitDy=0;entryX=0;entryY=0.5;entryDx=0;entryDy=0;endArrow=open;endFill=0;endSize=15;" edge="1" parent="WIyWlLk6GJQsqaUBKTNV-1">
          <mxGeometry relative="1" as="geometry">
            <mxPoint x="780" y="159.5" as="sourcePoint" />
            <mxPoint x="860" y="159.5" as="targetPoint" />
          </mxGeometry>
        </mxCell>
        <mxCell id="uXJUU_KmSxDn1WXmXQjy-20" style="edgeStyle=orthogonalEdgeStyle;rounded=0;orthogonalLoop=1;jettySize=auto;html=1;exitX=1;exitY=0.5;exitDx=0;exitDy=0;entryX=0;entryY=0.5;entryDx=0;entryDy=0;endArrow=open;endFill=0;endSize=15;" edge="1" parent="WIyWlLk6GJQsqaUBKTNV-1">
          <mxGeometry relative="1" as="geometry">
            <mxPoint x="780" y="99.5" as="sourcePoint" />
            <mxPoint x="860" y="99.5" as="targetPoint" />
          </mxGeometry>
        </mxCell>
        <mxCell id="uXJUU_KmSxDn1WXmXQjy-21" value="" style="endArrow=none;html=1;rounded=0;strokeWidth=4;" edge="1" parent="WIyWlLk6GJQsqaUBKTNV-1">
          <mxGeometry width="50" height="50" relative="1" as="geometry">
            <mxPoint x="1060" y="220" as="sourcePoint" />
            <mxPoint x="1060" y="100" as="targetPoint" />
          </mxGeometry>
        </mxCell>
        <mxCell id="uXJUU_KmSxDn1WXmXQjy-22" style="edgeStyle=orthogonalEdgeStyle;rounded=0;orthogonalLoop=1;jettySize=auto;html=1;exitX=1;exitY=0.5;exitDx=0;exitDy=0;entryX=0;entryY=0.5;entryDx=0;entryDy=0;endArrow=open;endFill=0;endSize=15;" edge="1" parent="WIyWlLk6GJQsqaUBKTNV-1">
          <mxGeometry relative="1" as="geometry">
            <mxPoint x="980" y="219.5" as="sourcePoint" />
            <mxPoint x="1060" y="219.5" as="targetPoint" />
          </mxGeometry>
        </mxCell>
        <mxCell id="uXJUU_KmSxDn1WXmXQjy-23" style="edgeStyle=orthogonalEdgeStyle;rounded=0;orthogonalLoop=1;jettySize=auto;html=1;exitX=1;exitY=0.5;exitDx=0;exitDy=0;entryX=0;entryY=0.5;entryDx=0;entryDy=0;endArrow=open;endFill=0;endSize=15;" edge="1" parent="WIyWlLk6GJQsqaUBKTNV-1">
          <mxGeometry relative="1" as="geometry">
            <mxPoint x="980" y="159.5" as="sourcePoint" />
            <mxPoint x="1060" y="159.5" as="targetPoint" />
          </mxGeometry>
        </mxCell>
        <mxCell id="uXJUU_KmSxDn1WXmXQjy-24" style="edgeStyle=orthogonalEdgeStyle;rounded=0;orthogonalLoop=1;jettySize=auto;html=1;exitX=1;exitY=0.5;exitDx=0;exitDy=0;entryX=0;entryY=0.5;entryDx=0;entryDy=0;endArrow=open;endFill=0;endSize=15;" edge="1" parent="WIyWlLk6GJQsqaUBKTNV-1">
          <mxGeometry relative="1" as="geometry">
            <mxPoint x="980" y="99.5" as="sourcePoint" />
            <mxPoint x="1060" y="99.5" as="targetPoint" />
          </mxGeometry>
        </mxCell>
        <mxCell id="uXJUU_KmSxDn1WXmXQjy-25" style="edgeStyle=orthogonalEdgeStyle;rounded=0;orthogonalLoop=1;jettySize=auto;html=1;endArrow=open;endFill=0;endSize=15;entryX=0.5;entryY=0;entryDx=0;entryDy=0;" edge="1" parent="WIyWlLk6GJQsqaUBKTNV-1" target="uXJUU_KmSxDn1WXmXQjy-26">
          <mxGeometry relative="1" as="geometry">
            <mxPoint x="1060" y="160" as="sourcePoint" />
            <mxPoint x="1140" y="300" as="targetPoint" />
            <Array as="points">
              <mxPoint x="1080" y="160" />
            </Array>
          </mxGeometry>
        </mxCell>
        <mxCell id="uXJUU_KmSxDn1WXmXQjy-26" value="Gesamtbewertung ausführen" style="rounded=1;whiteSpace=wrap;html=1;" vertex="1" parent="WIyWlLk6GJQsqaUBKTNV-1">
          <mxGeometry x="1020" y="300" width="120" height="40" as="geometry" />
        </mxCell>
        <mxCell id="uXJUU_KmSxDn1WXmXQjy-27" value="" style="rhombus;whiteSpace=wrap;html=1;" vertex="1" parent="WIyWlLk6GJQsqaUBKTNV-1">
          <mxGeometry x="930" y="295" width="50" height="50" as="geometry" />
        </mxCell>
        <mxCell id="uXJUU_KmSxDn1WXmXQjy-28" style="edgeStyle=orthogonalEdgeStyle;rounded=0;orthogonalLoop=1;jettySize=auto;html=1;exitX=0;exitY=0.5;exitDx=0;exitDy=0;entryX=1;entryY=0.5;entryDx=0;entryDy=0;endArrow=open;endFill=0;endSize=15;" edge="1" parent="WIyWlLk6GJQsqaUBKTNV-1" source="uXJUU_KmSxDn1WXmXQjy-26" target="uXJUU_KmSxDn1WXmXQjy-27">
          <mxGeometry relative="1" as="geometry">
            <mxPoint x="990" y="169.5" as="sourcePoint" />
            <mxPoint x="1070" y="169.5" as="targetPoint" />
          </mxGeometry>
        </mxCell>
        <mxCell id="uXJUU_KmSxDn1WXmXQjy-32" style="edgeStyle=orthogonalEdgeStyle;rounded=0;orthogonalLoop=1;jettySize=auto;html=1;exitX=1;exitY=0.5;exitDx=0;exitDy=0;entryX=0;entryY=0.5;entryDx=0;entryDy=0;endArrow=open;endFill=0;endSize=15;exitPerimeter=0;" edge="1" parent="WIyWlLk6GJQsqaUBKTNV-1" source="uXJUU_KmSxDn1WXmXQjy-2">
          <mxGeometry relative="1" as="geometry">
            <mxPoint x="60" y="99.5" as="sourcePoint" />
            <mxPoint x="140" y="99.5" as="targetPoint" />
          </mxGeometry>
        </mxCell>
        <mxCell id="uXJUU_KmSxDn1WXmXQjy-36" style="edgeStyle=orthogonalEdgeStyle;rounded=0;orthogonalLoop=1;jettySize=auto;html=1;exitX=0.5;exitY=0;exitDx=0;exitDy=0;endArrow=open;endFill=0;endSize=15;entryX=0.5;entryY=1;entryDx=0;entryDy=0;" edge="1" parent="WIyWlLk6GJQsqaUBKTNV-1" source="uXJUU_KmSxDn1WXmXQjy-53" target="uXJUU_KmSxDn1WXmXQjy-38">
          <mxGeometry relative="1" as="geometry">
            <mxPoint x="1070" y="330" as="sourcePoint" />
            <mxPoint x="190" y="260" as="targetPoint" />
            <Array as="points" />
          </mxGeometry>
        </mxCell>
        <mxCell id="uXJUU_KmSxDn1WXmXQjy-37" value="[kritischer&lt;br&gt;Fehler entdeckt]" style="edgeLabel;html=1;align=center;verticalAlign=middle;resizable=0;points=[];" vertex="1" connectable="0" parent="uXJUU_KmSxDn1WXmXQjy-36">
          <mxGeometry x="0.9152" relative="1" as="geometry">
            <mxPoint x="90" y="69" as="offset" />
          </mxGeometry>
        </mxCell>
        <mxCell id="uXJUU_KmSxDn1WXmXQjy-92" value="[Überarbeitung&lt;br&gt;zeitunkritisch]" style="edgeLabel;html=1;align=center;verticalAlign=middle;resizable=0;points=[];" vertex="1" connectable="0" parent="uXJUU_KmSxDn1WXmXQjy-36">
          <mxGeometry x="0.1333" relative="1" as="geometry">
            <mxPoint x="-50" y="7" as="offset" />
          </mxGeometry>
        </mxCell>
        <mxCell id="uXJUU_KmSxDn1WXmXQjy-93" value="[Überarbeitung&lt;br&gt;zeitkritisch]" style="edgeLabel;html=1;align=center;verticalAlign=middle;resizable=0;points=[];" vertex="1" connectable="0" parent="uXJUU_KmSxDn1WXmXQjy-36">
          <mxGeometry x="0.1333" relative="1" as="geometry">
            <mxPoint x="-40" y="227" as="offset" />
          </mxGeometry>
        </mxCell>
        <mxCell id="uXJUU_KmSxDn1WXmXQjy-38" value="Fachfeinkonzept überarbeiten" style="rounded=1;whiteSpace=wrap;html=1;" vertex="1" parent="WIyWlLk6GJQsqaUBKTNV-1">
          <mxGeometry x="140" y="200" width="120" height="40" as="geometry" />
        </mxCell>
        <mxCell id="uXJUU_KmSxDn1WXmXQjy-42" value="" style="edgeStyle=orthogonalEdgeStyle;rounded=0;orthogonalLoop=1;jettySize=auto;html=1;exitX=1;exitY=0.5;exitDx=0;exitDy=0;entryX=0.5;entryY=0;entryDx=0;entryDy=0;endArrow=open;endFill=0;endSize=15;" edge="1" parent="WIyWlLk6GJQsqaUBKTNV-1" source="uXJUU_KmSxDn1WXmXQjy-0" target="uXJUU_KmSxDn1WXmXQjy-41">
          <mxGeometry relative="1" as="geometry">
            <mxPoint x="250" y="160" as="sourcePoint" />
            <mxPoint x="380" y="160" as="targetPoint" />
            <Array as="points">
              <mxPoint x="315" y="100" />
            </Array>
          </mxGeometry>
        </mxCell>
        <mxCell id="uXJUU_KmSxDn1WXmXQjy-41" value="" style="rhombus;whiteSpace=wrap;html=1;" vertex="1" parent="WIyWlLk6GJQsqaUBKTNV-1">
          <mxGeometry x="290" y="135" width="50" height="50" as="geometry" />
        </mxCell>
        <mxCell id="uXJUU_KmSxDn1WXmXQjy-44" value="" style="edgeStyle=orthogonalEdgeStyle;rounded=0;orthogonalLoop=1;jettySize=auto;html=1;exitX=1;exitY=0.5;exitDx=0;exitDy=0;entryX=0.5;entryY=1;entryDx=0;entryDy=0;endArrow=open;endFill=0;endSize=15;" edge="1" parent="WIyWlLk6GJQsqaUBKTNV-1" source="uXJUU_KmSxDn1WXmXQjy-38" target="uXJUU_KmSxDn1WXmXQjy-41">
          <mxGeometry relative="1" as="geometry">
            <mxPoint x="260" y="170" as="sourcePoint" />
            <mxPoint x="300" y="170" as="targetPoint" />
            <Array as="points">
              <mxPoint x="315" y="220" />
            </Array>
          </mxGeometry>
        </mxCell>
        <mxCell id="uXJUU_KmSxDn1WXmXQjy-47" value="Fachfeinkonzept korrigieren" style="rounded=1;whiteSpace=wrap;html=1;" vertex="1" parent="WIyWlLk6GJQsqaUBKTNV-1">
          <mxGeometry x="380" y="400" width="120" height="40" as="geometry" />
        </mxCell>
        <mxCell id="uXJUU_KmSxDn1WXmXQjy-48" style="edgeStyle=orthogonalEdgeStyle;rounded=0;orthogonalLoop=1;jettySize=auto;html=1;exitX=0;exitY=0.5;exitDx=0;exitDy=0;endArrow=open;endFill=0;endSize=15;entryX=0.5;entryY=0;entryDx=0;entryDy=0;" edge="1" parent="WIyWlLk6GJQsqaUBKTNV-1" source="uXJUU_KmSxDn1WXmXQjy-27" target="uXJUU_KmSxDn1WXmXQjy-47">
          <mxGeometry relative="1" as="geometry">
            <mxPoint x="965" y="305" as="sourcePoint" />
            <mxPoint x="190" y="360" as="targetPoint" />
            <Array as="points">
              <mxPoint x="440" y="320" />
            </Array>
          </mxGeometry>
        </mxCell>
        <mxCell id="uXJUU_KmSxDn1WXmXQjy-49" value="[unkritischer&lt;br&gt;Fehler entdeckt]" style="edgeLabel;html=1;align=center;verticalAlign=middle;resizable=0;points=[];" vertex="1" connectable="0" parent="uXJUU_KmSxDn1WXmXQjy-48">
          <mxGeometry x="0.9152" relative="1" as="geometry">
            <mxPoint x="-50" y="-16" as="offset" />
          </mxGeometry>
        </mxCell>
        <mxCell id="uXJUU_KmSxDn1WXmXQjy-50" style="edgeStyle=orthogonalEdgeStyle;rounded=0;orthogonalLoop=1;jettySize=auto;html=1;exitX=0.5;exitY=1;exitDx=0;exitDy=0;endArrow=open;endFill=0;endSize=15;entryX=0.5;entryY=0;entryDx=0;entryDy=0;" edge="1" parent="WIyWlLk6GJQsqaUBKTNV-1" source="uXJUU_KmSxDn1WXmXQjy-27" target="uXJUU_KmSxDn1WXmXQjy-56">
          <mxGeometry relative="1" as="geometry">
            <mxPoint x="940" y="330" as="sourcePoint" />
            <mxPoint x="570" y="350" as="targetPoint" />
            <Array as="points">
              <mxPoint x="640" y="345" />
            </Array>
          </mxGeometry>
        </mxCell>
        <mxCell id="uXJUU_KmSxDn1WXmXQjy-51" value="[kein&lt;br&gt;Fehler entdeckt]" style="edgeLabel;html=1;align=center;verticalAlign=middle;resizable=0;points=[];" vertex="1" connectable="0" parent="uXJUU_KmSxDn1WXmXQjy-50">
          <mxGeometry x="0.9152" relative="1" as="geometry">
            <mxPoint x="70" y="-35" as="offset" />
          </mxGeometry>
        </mxCell>
        <mxCell id="uXJUU_KmSxDn1WXmXQjy-52" value="ohne Vorbehalt abnehmen" style="rounded=1;whiteSpace=wrap;html=1;" vertex="1" parent="WIyWlLk6GJQsqaUBKTNV-1">
          <mxGeometry x="580" y="520" width="120" height="40" as="geometry" />
        </mxCell>
        <mxCell id="uXJUU_KmSxDn1WXmXQjy-54" value="" style="edgeStyle=orthogonalEdgeStyle;rounded=0;orthogonalLoop=1;jettySize=auto;html=1;exitX=0.5;exitY=0;exitDx=0;exitDy=0;endArrow=open;endFill=0;endSize=15;entryX=1;entryY=0.5;entryDx=0;entryDy=0;" edge="1" parent="WIyWlLk6GJQsqaUBKTNV-1" source="uXJUU_KmSxDn1WXmXQjy-27" target="uXJUU_KmSxDn1WXmXQjy-53">
          <mxGeometry relative="1" as="geometry">
            <mxPoint x="955" y="295" as="sourcePoint" />
            <mxPoint x="200" y="240" as="targetPoint" />
            <Array as="points">
              <mxPoint x="770" y="295" />
              <mxPoint x="770" y="295" />
            </Array>
          </mxGeometry>
        </mxCell>
        <mxCell id="uXJUU_KmSxDn1WXmXQjy-53" value="" style="rhombus;whiteSpace=wrap;html=1;" vertex="1" parent="WIyWlLk6GJQsqaUBKTNV-1">
          <mxGeometry x="175" y="270" width="50" height="50" as="geometry" />
        </mxCell>
        <mxCell id="uXJUU_KmSxDn1WXmXQjy-56" value="" style="rhombus;whiteSpace=wrap;html=1;" vertex="1" parent="WIyWlLk6GJQsqaUBKTNV-1">
          <mxGeometry x="615" y="395" width="50" height="50" as="geometry" />
        </mxCell>
        <mxCell id="uXJUU_KmSxDn1WXmXQjy-57" style="edgeStyle=orthogonalEdgeStyle;rounded=0;orthogonalLoop=1;jettySize=auto;html=1;exitX=1;exitY=0.5;exitDx=0;exitDy=0;entryX=0;entryY=0.5;entryDx=0;entryDy=0;endArrow=open;endFill=0;endSize=15;" edge="1" parent="WIyWlLk6GJQsqaUBKTNV-1" target="uXJUU_KmSxDn1WXmXQjy-56">
          <mxGeometry relative="1" as="geometry">
            <mxPoint x="500" y="419.5" as="sourcePoint" />
            <mxPoint x="580" y="419.5" as="targetPoint" />
          </mxGeometry>
        </mxCell>
        <mxCell id="uXJUU_KmSxDn1WXmXQjy-58" style="edgeStyle=orthogonalEdgeStyle;rounded=0;orthogonalLoop=1;jettySize=auto;html=1;exitX=0.5;exitY=1;exitDx=0;exitDy=0;endArrow=open;endFill=0;endSize=15;entryX=0.5;entryY=0;entryDx=0;entryDy=0;" edge="1" parent="WIyWlLk6GJQsqaUBKTNV-1" source="uXJUU_KmSxDn1WXmXQjy-56" target="uXJUU_KmSxDn1WXmXQjy-52">
          <mxGeometry relative="1" as="geometry">
            <mxPoint x="710" y="169.5" as="sourcePoint" />
            <mxPoint x="790" y="169.5" as="targetPoint" />
          </mxGeometry>
        </mxCell>
        <mxCell id="uXJUU_KmSxDn1WXmXQjy-59" value="unter Vorbehalt abnehmen" style="rounded=1;whiteSpace=wrap;html=1;" vertex="1" parent="WIyWlLk6GJQsqaUBKTNV-1">
          <mxGeometry x="140" y="520" width="120" height="40" as="geometry" />
        </mxCell>
        <mxCell id="uXJUU_KmSxDn1WXmXQjy-60" style="edgeStyle=orthogonalEdgeStyle;rounded=0;orthogonalLoop=1;jettySize=auto;html=1;exitX=0.5;exitY=1;exitDx=0;exitDy=0;endArrow=open;endFill=0;endSize=15;entryX=0.5;entryY=0;entryDx=0;entryDy=0;" edge="1" parent="WIyWlLk6GJQsqaUBKTNV-1" target="uXJUU_KmSxDn1WXmXQjy-59" source="uXJUU_KmSxDn1WXmXQjy-53">
          <mxGeometry relative="1" as="geometry">
            <mxPoint x="200" y="445" as="sourcePoint" />
            <mxPoint x="350" y="169.5" as="targetPoint" />
          </mxGeometry>
        </mxCell>
        <mxCell id="uXJUU_KmSxDn1WXmXQjy-61" value="" style="rhombus;whiteSpace=wrap;html=1;" vertex="1" parent="WIyWlLk6GJQsqaUBKTNV-1">
          <mxGeometry x="415" y="515" width="50" height="50" as="geometry" />
        </mxCell>
        <mxCell id="uXJUU_KmSxDn1WXmXQjy-62" style="edgeStyle=orthogonalEdgeStyle;rounded=0;orthogonalLoop=1;jettySize=auto;html=1;exitX=1;exitY=0.5;exitDx=0;exitDy=0;endArrow=open;endFill=0;endSize=15;entryX=0;entryY=0.5;entryDx=0;entryDy=0;" edge="1" parent="WIyWlLk6GJQsqaUBKTNV-1" source="uXJUU_KmSxDn1WXmXQjy-59" target="uXJUU_KmSxDn1WXmXQjy-61">
          <mxGeometry relative="1" as="geometry">
            <mxPoint x="790" y="229.5" as="sourcePoint" />
            <mxPoint x="420" y="540" as="targetPoint" />
          </mxGeometry>
        </mxCell>
        <mxCell id="uXJUU_KmSxDn1WXmXQjy-63" style="edgeStyle=orthogonalEdgeStyle;rounded=0;orthogonalLoop=1;jettySize=auto;html=1;exitX=0;exitY=0.5;exitDx=0;exitDy=0;endArrow=open;endFill=0;endSize=15;entryX=1;entryY=0.5;entryDx=0;entryDy=0;" edge="1" parent="WIyWlLk6GJQsqaUBKTNV-1" source="uXJUU_KmSxDn1WXmXQjy-52" target="uXJUU_KmSxDn1WXmXQjy-61">
          <mxGeometry relative="1" as="geometry">
            <mxPoint x="270" y="550" as="sourcePoint" />
            <mxPoint x="425" y="550" as="targetPoint" />
          </mxGeometry>
        </mxCell>
        <mxCell id="uXJUU_KmSxDn1WXmXQjy-65" style="edgeStyle=orthogonalEdgeStyle;rounded=0;orthogonalLoop=1;jettySize=auto;html=1;exitX=1;exitY=0.5;exitDx=0;exitDy=0;endArrow=open;endFill=0;endSize=15;" edge="1" parent="WIyWlLk6GJQsqaUBKTNV-1" source="uXJUU_KmSxDn1WXmXQjy-87">
          <mxGeometry relative="1" as="geometry">
            <mxPoint x="510" y="170" as="sourcePoint" />
            <mxPoint x="580" y="720" as="targetPoint" />
            <Array as="points" />
          </mxGeometry>
        </mxCell>
        <mxCell id="uXJUU_KmSxDn1WXmXQjy-66" value="" style="endArrow=none;html=1;rounded=0;strokeWidth=4;" edge="1" parent="WIyWlLk6GJQsqaUBKTNV-1">
          <mxGeometry width="50" height="50" relative="1" as="geometry">
            <mxPoint x="585.5" y="780" as="sourcePoint" />
            <mxPoint x="585.5" y="660" as="targetPoint" />
          </mxGeometry>
        </mxCell>
        <mxCell id="uXJUU_KmSxDn1WXmXQjy-68" value="Kunde unterschreibt Abnahmeprotokoll" style="rounded=1;whiteSpace=wrap;html=1;" vertex="1" parent="WIyWlLk6GJQsqaUBKTNV-1">
          <mxGeometry x="665" y="640" width="120" height="40" as="geometry" />
        </mxCell>
        <mxCell id="uXJUU_KmSxDn1WXmXQjy-69" value="Gutachter unterschreibt AP" style="rounded=1;whiteSpace=wrap;html=1;" vertex="1" parent="WIyWlLk6GJQsqaUBKTNV-1">
          <mxGeometry x="665" y="760" width="120" height="40" as="geometry" />
        </mxCell>
        <mxCell id="uXJUU_KmSxDn1WXmXQjy-70" value="IT-Leiter unterschreibt Abnahmeprotokoll" style="rounded=1;whiteSpace=wrap;html=1;" vertex="1" parent="WIyWlLk6GJQsqaUBKTNV-1">
          <mxGeometry x="665" y="700" width="120" height="40" as="geometry" />
        </mxCell>
        <mxCell id="uXJUU_KmSxDn1WXmXQjy-71" style="edgeStyle=orthogonalEdgeStyle;rounded=0;orthogonalLoop=1;jettySize=auto;html=1;exitX=1;exitY=0.5;exitDx=0;exitDy=0;entryX=0;entryY=0.5;entryDx=0;entryDy=0;endArrow=open;endFill=0;endSize=15;" edge="1" parent="WIyWlLk6GJQsqaUBKTNV-1">
          <mxGeometry relative="1" as="geometry">
            <mxPoint x="585" y="779.5" as="sourcePoint" />
            <mxPoint x="665" y="779.5" as="targetPoint" />
          </mxGeometry>
        </mxCell>
        <mxCell id="uXJUU_KmSxDn1WXmXQjy-72" style="edgeStyle=orthogonalEdgeStyle;rounded=0;orthogonalLoop=1;jettySize=auto;html=1;exitX=1;exitY=0.5;exitDx=0;exitDy=0;entryX=0;entryY=0.5;entryDx=0;entryDy=0;endArrow=open;endFill=0;endSize=15;" edge="1" parent="WIyWlLk6GJQsqaUBKTNV-1">
          <mxGeometry relative="1" as="geometry">
            <mxPoint x="585" y="719.5" as="sourcePoint" />
            <mxPoint x="665" y="719.5" as="targetPoint" />
          </mxGeometry>
        </mxCell>
        <mxCell id="uXJUU_KmSxDn1WXmXQjy-73" style="edgeStyle=orthogonalEdgeStyle;rounded=0;orthogonalLoop=1;jettySize=auto;html=1;exitX=1;exitY=0.5;exitDx=0;exitDy=0;entryX=0;entryY=0.5;entryDx=0;entryDy=0;endArrow=open;endFill=0;endSize=15;" edge="1" parent="WIyWlLk6GJQsqaUBKTNV-1">
          <mxGeometry relative="1" as="geometry">
            <mxPoint x="585" y="659.5" as="sourcePoint" />
            <mxPoint x="665" y="659.5" as="targetPoint" />
          </mxGeometry>
        </mxCell>
        <mxCell id="uXJUU_KmSxDn1WXmXQjy-74" value="" style="endArrow=none;html=1;rounded=0;strokeWidth=4;" edge="1" parent="WIyWlLk6GJQsqaUBKTNV-1">
          <mxGeometry width="50" height="50" relative="1" as="geometry">
            <mxPoint x="865" y="780" as="sourcePoint" />
            <mxPoint x="865" y="660" as="targetPoint" />
          </mxGeometry>
        </mxCell>
        <mxCell id="uXJUU_KmSxDn1WXmXQjy-75" style="edgeStyle=orthogonalEdgeStyle;rounded=0;orthogonalLoop=1;jettySize=auto;html=1;exitX=1;exitY=0.5;exitDx=0;exitDy=0;entryX=0;entryY=0.5;entryDx=0;entryDy=0;endArrow=open;endFill=0;endSize=15;" edge="1" parent="WIyWlLk6GJQsqaUBKTNV-1">
          <mxGeometry relative="1" as="geometry">
            <mxPoint x="785" y="779.5" as="sourcePoint" />
            <mxPoint x="865" y="779.5" as="targetPoint" />
          </mxGeometry>
        </mxCell>
        <mxCell id="uXJUU_KmSxDn1WXmXQjy-76" style="edgeStyle=orthogonalEdgeStyle;rounded=0;orthogonalLoop=1;jettySize=auto;html=1;exitX=1;exitY=0.5;exitDx=0;exitDy=0;entryX=0;entryY=0.5;entryDx=0;entryDy=0;endArrow=open;endFill=0;endSize=15;" edge="1" parent="WIyWlLk6GJQsqaUBKTNV-1">
          <mxGeometry relative="1" as="geometry">
            <mxPoint x="785" y="719.5" as="sourcePoint" />
            <mxPoint x="865" y="719.5" as="targetPoint" />
          </mxGeometry>
        </mxCell>
        <mxCell id="uXJUU_KmSxDn1WXmXQjy-77" style="edgeStyle=orthogonalEdgeStyle;rounded=0;orthogonalLoop=1;jettySize=auto;html=1;exitX=1;exitY=0.5;exitDx=0;exitDy=0;entryX=0;entryY=0.5;entryDx=0;entryDy=0;endArrow=open;endFill=0;endSize=15;" edge="1" parent="WIyWlLk6GJQsqaUBKTNV-1">
          <mxGeometry relative="1" as="geometry">
            <mxPoint x="785" y="659.5" as="sourcePoint" />
            <mxPoint x="865" y="659.5" as="targetPoint" />
          </mxGeometry>
        </mxCell>
        <mxCell id="uXJUU_KmSxDn1WXmXQjy-78" style="edgeStyle=orthogonalEdgeStyle;rounded=0;orthogonalLoop=1;jettySize=auto;html=1;exitX=1;exitY=0.5;exitDx=0;exitDy=0;endArrow=open;endFill=0;endSize=15;" edge="1" parent="WIyWlLk6GJQsqaUBKTNV-1">
          <mxGeometry relative="1" as="geometry">
            <mxPoint x="865.5" y="720" as="sourcePoint" />
            <mxPoint x="905" y="720" as="targetPoint" />
          </mxGeometry>
        </mxCell>
        <mxCell id="uXJUU_KmSxDn1WXmXQjy-79" value="Implementierung einleiten" style="rounded=1;whiteSpace=wrap;html=1;" vertex="1" parent="WIyWlLk6GJQsqaUBKTNV-1">
          <mxGeometry x="905" y="700" width="120" height="40" as="geometry" />
        </mxCell>
        <mxCell id="uXJUU_KmSxDn1WXmXQjy-80" value="" style="strokeWidth=2;html=1;shape=mxgraph.flowchart.start_2;whiteSpace=wrap;fillColor=#0F0F0F;" vertex="1" parent="WIyWlLk6GJQsqaUBKTNV-1">
          <mxGeometry x="1075" y="710" width="20" height="20" as="geometry" />
        </mxCell>
        <mxCell id="uXJUU_KmSxDn1WXmXQjy-86" value="&lt;font style=&quot;font-size: 18px;&quot;&gt;&lt;b&gt;Abnahme eines Fachfeinkonzepts&lt;/b&gt;&lt;/font&gt;" style="rounded=0;whiteSpace=wrap;html=1;" vertex="1" parent="WIyWlLk6GJQsqaUBKTNV-1">
          <mxGeometry width="1160" height="40" as="geometry" />
        </mxCell>
        <mxCell id="uXJUU_KmSxDn1WXmXQjy-87" value="Abnahmeprotokoll ausgeben" style="rounded=1;whiteSpace=wrap;html=1;" vertex="1" parent="WIyWlLk6GJQsqaUBKTNV-1">
          <mxGeometry x="380" y="700" width="120" height="40" as="geometry" />
        </mxCell>
        <mxCell id="uXJUU_KmSxDn1WXmXQjy-88" style="edgeStyle=orthogonalEdgeStyle;rounded=0;orthogonalLoop=1;jettySize=auto;html=1;exitX=0.5;exitY=1;exitDx=0;exitDy=0;endArrow=open;endFill=0;endSize=15;entryX=0.5;entryY=0;entryDx=0;entryDy=0;" edge="1" parent="WIyWlLk6GJQsqaUBKTNV-1" source="uXJUU_KmSxDn1WXmXQjy-61" target="uXJUU_KmSxDn1WXmXQjy-87">
          <mxGeometry relative="1" as="geometry">
            <mxPoint x="650" y="455" as="sourcePoint" />
            <mxPoint x="650" y="530" as="targetPoint" />
          </mxGeometry>
        </mxCell>
        <mxCell id="uXJUU_KmSxDn1WXmXQjy-91" style="edgeStyle=orthogonalEdgeStyle;rounded=0;orthogonalLoop=1;jettySize=auto;html=1;exitX=1;exitY=0.5;exitDx=0;exitDy=0;entryX=0;entryY=0.5;entryDx=0;entryDy=0;endArrow=open;endFill=0;endSize=15;" edge="1" parent="WIyWlLk6GJQsqaUBKTNV-1" source="uXJUU_KmSxDn1WXmXQjy-79" target="uXJUU_KmSxDn1WXmXQjy-84">
          <mxGeometry relative="1" as="geometry">
            <mxPoint x="835.5" y="730" as="sourcePoint" />
            <mxPoint x="915.5" y="730" as="targetPoint" />
          </mxGeometry>
        </mxCell>
      </root>
    </mxGraphModel>
  </diagram>
</mxfile>
